/* XPM */
static char *result[] = {
/* columns rows colors chars-per-pixel */
"32 32 136 2 ",
"   c black",
".  c #010101",
"X  c #020202",
"o  c gray1",
"O  c #040404",
"+  c gray2",
"@  c #060606",
"#  c #070707",
"$  c gray3",
"%  c #090909",
"&  c gray4",
"*  c #0B0B0B",
"=  c #0C0C0C",
"-  c gray5",
";  c #0E0E0E",
":  c #101010",
">  c #111111",
",  c #131313",
"<  c gray8",
"1  c #161616",
"2  c #181818",
"3  c #191919",
"4  c gray10",
"5  c gray11",
"6  c #1E1E1E",
"7  c gray12",
"8  c #202020",
"9  c gray13",
"0  c gray14",
"q  c #252525",
"w  c gray15",
"e  c #272727",
"r  c #2A2A2A",
"t  c #2C2C2C",
"y  c #2D2D2D",
"u  c gray18",
"i  c #2F2F2F",
"p  c gray19",
"a  c #313131",
"s  c #323232",
"d  c gray20",
"f  c #343434",
"g  c #353535",
"h  c gray21",
"j  c #373737",
"k  c gray22",
"l  c #393939",
"z  c #3A3A3A",
"x  c gray23",
"c  c #3C3C3C",
"v  c gray24",
"b  c #3E3E3E",
"n  c #3F3F3F",
"m  c #414141",
"M  c #434343",
"N  c #444444",
"B  c gray27",
"V  c #464646",
"C  c gray28",
"Z  c #484848",
"A  c #494949",
"S  c gray29",
"D  c #4C4C4C",
"F  c gray30",
"G  c #4E4E4E",
"H  c gray31",
"J  c #515151",
"K  c #535353",
"L  c gray33",
"P  c #555555",
"I  c #585858",
"U  c #5A5A5A",
"Y  c gray36",
"T  c gray37",
"R  c #626262",
"E  c gray39",
"W  c #646464",
"Q  c #656565",
"!  c gray40",
"~  c #676767",
"^  c #686868",
"/  c #6A6A6A",
"(  c #6C6C6C",
")  c #6D6D6D",
"_  c gray43",
"`  c #6F6F6F",
"'  c gray44",
"]  c #717171",
"[  c #727272",
"{  c gray45",
"}  c #747474",
"|  c gray46",
" . c #767676",
".. c gray47",
"X. c #7B7B7B",
"o. c #7C7C7C",
"O. c gray49",
"+. c #7E7E7E",
"@. c gray50",
"#. c #808080",
"$. c #818181",
"%. c gray51",
"&. c #848484",
"*. c gray52",
"=. c #868686",
"-. c #888888",
";. c #898989",
":. c #8E8E8E",
">. c #909090",
",. c #939393",
"<. c gray58",
"1. c gray62",
"2. c #9F9F9F",
"3. c gray63",
"4. c #A2A2A2",
"5. c #A5A5A5",
"6. c #A7A7A7",
"7. c gray66",
"8. c #AAAAAA",
"9. c #ACACAC",
"0. c gray69",
"q. c #B1B1B1",
"w. c #B2B2B2",
"e. c gray70",
"r. c #B7B7B7",
"t. c gray72",
"y. c #B9B9B9",
"u. c gray74",
"i. c #CBCBCB",
"p. c gray83",
"a. c #D5D5D5",
"s. c #D8D8D8",
"d. c #F4F4F4",
"f. c gray96",
"g. c white",
"h. c None",
/* pixels */
"h.h.h.h.h.h.h.h.h.h.h.h.h.f.a.e.q.p.d.h.h.h.h.h.h.h.h.h.h.h.h.h.",
"h.h.h.h.h.h.h.h.h.h.h./ d ; X     X - s ~ r.h.h.h.h.h.h.h.h.h.h.",
"h.h.h.h.h.h.h.h.w.S $ N ,.e         8 <.Z $ V 8.h.h.h.h.h.h.h.h.",
"h.h.h.h.h.h.h.` ; ~ e.h.h..           9.h.h.b ; ^ h.h.h.h.h.h.h.",
"h.h.h.h.h.h.c 8  .h.h.h.R             I h.h.h.#.0 B s.h.h.h.h.h.",
"h.h.h.h.h.n V h.h.h.h.h.i             r h.h.h.h.h.D z h.h.h.h.h.",
"h.h.h.h.M N h.h.h.h.h.O.#             + { h.h.h.h.h.S c h.h.h.h.",
"h.h.h.#.t h.h.h.h.h.h.j                 p h.h.h.h.h.h.i ..h.h.h.",
"h.h.h.y o.h.h.h.h.h.h.,                 : h.h.h.h.h.h.=.r h.h.h.",
"h.h.W b h.h.h.h.h.h.S         . .         m h.h.h.h.h.h.N U h.h.",
"h.h.i o.h.h.h.h.h.h.0         7 q         7 h.h.h.h.h.h.W r h.h.",
"h.&.r h.h.h.h.h.h.[ o         ] X.        X / h.h.h.h.h.h.q ..h.",
"h.` B h.h.h.h.h.h.b         - h.h.>         k h.h.h.h.h.h.c ^ h.",
"h.A ( h.h.h.h.h.8.*         S h.h.K         % 2.h.h.h.h.h.} N h.",
"h.l ;.h.h.h.h.h.n         o 7.h.h.r.O         G h.h.h.h.h.=.g h.",
"h.d h.h.h.h.h.h.2         d h.h.h.h.x         < i.h.h.h.h.h.a h.",
"h.f -.h.h.h.h.o..       . ! h.h.h.h.| .       . ' h.h.h.h.h.a h.",
"h.v $.h.h.h.h.r         5 h.h.h.h.h.h.9         0 h.h.h.h.;.l h.",
"h.L T h.h.h.1.@         R h.h.h.h.h.h.Y         O ,.h.h.h.! F h.",
"h.' u h.h.h.n         $ 1.h.h.h.h.h.h.h.=         j h.h.h.j E h.",
"h.h.w h.h.h.-         F h.h.h.h.h.h.h.h.P         & h.h.h.w :.h.",
"h.h.H H h._         X  .h.h.h.h.h.h.h.h.#.o         W h.U V h.h.",
"h.h.#.e 5.8         t h.h.h.h.h.h.h.h.h.h.s         5 6.r { h.h.",
"h.h.h.J i O         Q h.h.h.h.h.h.h.h.h.h._         o i A h.h.h.",
"h.h.h.>.6         < h.h.h.h.h.h.h.h.h.h.h.h.4         3 %.h.h.h.",
"h.h.h.h.-.@       b h.h.h.h.h.h.h.h.h.h.h.h.C       + +.h.h.h.h.",
"h.h.h.h.h.` +   O | h.h.h.h.h.h.h.h.h.h.h.h.#.+   O ! h.h.h.h.h.",
"h.h.h.h.h.h.Q - < h.h.h.h.h.h.h.h.h.h.h.h.h.h.1 * *.h.h.h.h.h.h.",
"h.h.h.h.h.h.h.t.k 5 ^ h.h.h.h.h.h.h.h.h.h.) 6 f 0.h.h.h.h.h.h.h.",
"h.h.h.h.h.h.h.h.h.+.g O h @.3.h.h.4.$.l O d ..h.h.h.h.h.h.h.h.h.",
"h.h.h.h.h.h.h.h.h.h.h.u.$.A p 0 0 i C +.y.h.h.h.h.h.h.h.h.h.h.h.",
"g.h.h.h.h.h.h.h.h.h.h.h.h.h.h.h.h.h.h.h.h.h.h.h.h.h.h.h.h.h.h.g."
};
