/* XPM */
static char *result[] = {
/* columns rows colors chars-per-pixel */
"16 16 61 1 ",
"  c black",
". c #010101",
"X c #020202",
"o c gray6",
"O c #101010",
"+ c gray8",
"@ c gray12",
"# c #202020",
"$ c #252525",
"% c #272727",
"& c gray16",
"* c #2C2C2C",
"= c #2D2D2D",
"- c gray18",
"; c #313131",
": c #353535",
"> c #393939",
", c #3E3E3E",
"< c #414141",
"1 c #434343",
"2 c #4B4B4B",
"3 c #565656",
"4 c #5B5B5B",
"5 c #626262",
"6 c gray39",
"7 c #646464",
"8 c #6F6F6F",
"9 c #747474",
"0 c #777777",
"q c gray47",
"w c gray49",
"e c #838383",
"r c #848484",
"t c #868686",
"y c gray53",
"u c #8B8B8B",
"i c #8D8D8D",
"p c #8E8E8E",
"a c #909090",
"s c gray58",
"d c #989898",
"f c gray61",
"g c #A2A2A2",
"h c gray64",
"j c gray67",
"k c gray68",
"l c #B1B1B1",
"z c gray70",
"x c #B4B4B4",
"c c #BCBCBC",
"v c gray74",
"b c gray",
"n c #C6C6C6",
"m c #C8C8C8",
"M c gray82",
"N c LightGray",
"B c gray84",
"V c #D7D7D7",
"C c gray88",
"Z c #E2E2E2",
"A c None",
/* pixels */
"AAAAAu#  @tAAAAA",
"AAAf&A2  1A-sAAA",
"AAwgAA    AAj9AA",
"AbiAAr    0AAdxA",
"AOAAA.     AAA+A",
"nkAAC  O+  BAAcz",
"6AAA*  hz  $AAA4",
":AAA   AA   AAA=",
"<AAq  wAAy  8AA>",
"pAA   AAAA   AAe",
"A5m  &AAAA;  v8A",
"A;+  VAAAAZ  o%A",
"AA. .AAAAAAX  AA",
"AAA eAAAAAAa AAA",
"AAAA4,kAAl<3AAAA",
"AAAAAAN77MAAAAAA"
};
