/* XPM */
static char *result[] = {
/* columns rows colors chars-per-pixel */
"64 64 230 2 ",
"   c black",
".  c #010101",
"X  c #020202",
"o  c gray1",
"O  c #040404",
"+  c gray2",
"@  c #060606",
"#  c #070707",
"$  c gray3",
"%  c #090909",
"&  c gray4",
"*  c #0B0B0B",
"=  c #0C0C0C",
"-  c gray5",
";  c #0E0E0E",
":  c gray6",
">  c #101010",
",  c #111111",
"<  c gray7",
"1  c #131313",
"2  c gray8",
"3  c #151515",
"4  c #161616",
"5  c gray9",
"6  c #181818",
"7  c #191919",
"8  c gray10",
"9  c #1B1B1B",
"0  c gray11",
"q  c #1D1D1D",
"w  c #1E1E1E",
"e  c gray12",
"r  c #202020",
"t  c gray13",
"y  c #222222",
"u  c #232323",
"i  c gray14",
"p  c #272727",
"a  c #282828",
"s  c gray16",
"d  c #2A2A2A",
"f  c gray17",
"g  c #2C2C2C",
"h  c #2D2D2D",
"j  c gray18",
"k  c gray19",
"l  c #313131",
"z  c #323232",
"x  c gray20",
"c  c #343434",
"v  c #353535",
"b  c gray21",
"n  c #373737",
"m  c gray22",
"M  c #393939",
"N  c #3A3A3A",
"B  c gray23",
"V  c #3C3C3C",
"C  c gray24",
"Z  c #3E3E3E",
"A  c #3F3F3F",
"S  c gray25",
"D  c #414141",
"F  c gray26",
"G  c #434343",
"H  c #444444",
"J  c gray27",
"K  c #464646",
"L  c gray28",
"P  c #484848",
"I  c #494949",
"U  c gray29",
"Y  c #4B4B4B",
"T  c #4C4C4C",
"R  c gray30",
"E  c #4E4E4E",
"W  c gray31",
"Q  c #505050",
"!  c #515151",
"~  c gray32",
"^  c #535353",
"/  c gray33",
"(  c #555555",
")  c #565656",
"_  c gray34",
"`  c #585858",
"'  c gray35",
"]  c gray36",
"[  c #5D5D5D",
"{  c gray37",
"}  c #606060",
"|  c gray38",
" . c #626262",
".. c gray39",
"X. c #646464",
"o. c #656565",
"O. c gray40",
"+. c #676767",
"@. c #686868",
"#. c #6A6A6A",
"$. c gray42",
"%. c #6C6C6C",
"&. c #6D6D6D",
"*. c gray43",
"=. c gray44",
"-. c #717171",
";. c #727272",
":. c gray45",
">. c #747474",
",. c #777777",
"<. c gray47",
"1. c #797979",
"2. c gray48",
"3. c #7B7B7B",
"4. c #7C7C7C",
"5. c gray49",
"6. c #7E7E7E",
"7. c gray50",
"8. c #818181",
"9. c #838383",
"0. c #848484",
"q. c #868686",
"w. c gray53",
"e. c #888888",
"r. c gray54",
"t. c gray55",
"y. c #8D8D8D",
"u. c #8E8E8E",
"i. c gray56",
"p. c gray57",
"a. c #929292",
"s. c #939393",
"d. c gray58",
"f. c #959595",
"g. c gray59",
"h. c #979797",
"j. c #989898",
"k. c #9A9A9A",
"l. c gray61",
"z. c #9D9D9D",
"x. c gray62",
"c. c #9F9F9F",
"v. c gray63",
"b. c #A2A2A2",
"n. c gray64",
"m. c #A4A4A4",
"M. c #A5A5A5",
"N. c gray65",
"B. c #A7A7A7",
"V. c #A9A9A9",
"C. c #AAAAAA",
"Z. c gray67",
"A. c #ACACAC",
"S. c gray68",
"D. c gray69",
"F. c #B1B1B1",
"G. c #B2B2B2",
"H. c gray70",
"J. c #B4B4B4",
"K. c gray71",
"L. c #B6B6B6",
"P. c #B7B7B7",
"I. c #B9B9B9",
"U. c gray73",
"Y. c #BBBBBB",
"T. c #BCBCBC",
"R. c gray74",
"E. c gray",
"W. c gray75",
"Q. c #C0C0C0",
"!. c #C1C1C1",
"~. c gray76",
"^. c #C3C3C3",
"/. c gray77",
"(. c #C5C5C5",
"). c gray78",
"_. c #C8C8C8",
"`. c gray79",
"'. c #CACACA",
"]. c #CBCBCB",
"[. c gray80",
"{. c #CDCDCD",
"}. c #CECECE",
"|. c #D0D0D0",
" X c gray82",
".X c #D2D2D2",
"XX c LightGray",
"oX c #D5D5D5",
"OX c gray84",
"+X c #D7D7D7",
"@X c #D8D8D8",
"#X c gray85",
"$X c #DADADA",
"%X c gray86",
"&X c gainsboro",
"*X c #DDDDDD",
"=X c gray87",
"-X c #DFDFDF",
";X c gray88",
":X c #E1E1E1",
">X c #E2E2E2",
",X c gray89",
"<X c #E4E4E4",
"1X c gray90",
"2X c #E6E6E6",
"3X c #E7E7E7",
"4X c gray91",
"5X c #E9E9E9",
"6X c #EAEAEA",
"7X c gray92",
"8X c #ECECEC",
"9X c gray93",
"0X c #EEEEEE",
"qX c #EFEFEF",
"wX c gray94",
"eX c #F1F1F1",
"rX c gray95",
"tX c #F3F3F3",
"yX c #F4F4F4",
"uX c gray96",
"iX c #F6F6F6",
"pX c gray97",
"aX c #F8F8F8",
"sX c #F9F9F9",
"dX c gray98",
"fX c #FBFBFB",
"gX c gray99",
"hX c #FDFDFD",
"jX c #FEFEFE",
"kX c None",
/* pixels */
"kXkXkXkXkXkXkXkXkXkXkXkXkXkXkXkXkXkXkXkXkXkXkXkXkXkXkXkXkXkXkXkXkXkXkXkXkXkXkXkXkXkXkXkXkXkXkXkXkXkXkXkXkXkXkXkXkXkXkXkXkXkXkXkX",
"kXkXkXkXkXkXkXkXkXkXkXkXkXkXkXkXkXkXkXkXkXkXkXkXkXkXgX7X&X'.P.S.A.K.`.&X6XfXkXkXkXkXkXkXkXkXkXkXkXkXkXkXkXkXkXkXkXkXkXkXkXkXkXkX",
"kXkXkXkXkXkXkXkXkXkXkXkXkXkXkXkXkXkXkXkXkXkX0X/.e.^ g 5 $             # 3 d Q 0.Q.7XkXkXkXkXkXkXkXkXkXkXkXkXkXkXkXkXkXkXkXkXkXkX",
"kXkXkXkXkXkXkXkXkXkXkXkXkXkXkXkXkXkXkXkXOX8.z X                                 X h 3.|.jXkXkXkXkXkXkXkXkXkXkXkXkXkXkXkXkXkXkXkX",
"kXkXkXkXkXkXkXkXkXkXkXkXkXkXkXkXkXdX`.R X       < v k                     f M 2       . G ^.aXkXkXkXkXkXkXkXkXkXkXkXkXkXkXkXkXkX",
"kXkXkXkXkXkXkXkXkXkXkXkXkXkXkXkX).H #     $ ..K.2XyXR                     V qX5XU.$.*     + C R.kXkXkXkXkXkXkXkXkXkXkXkXkXkXkXkX",
"kXkXkXkXkXkXkXkXkXkXkXkXkXkX9X>.@     s t.3XkXkXkXQ.@                     X G.kXkXkX8Xs.l     O #.4XkXkXkXkXkXkXkXkXkXkXkXkXkXkX",
"kXkXkXkXkXkXkXkXkXkXkXkXkX).t     q w.jXkXkXkXkXkXO.                        ) jXkXkXkXkXkXs.u     6 R.kXkXkXkXkXkXkXkXkXkXkXkXkX",
"kXkXkXkXkXkXkXkXkXkXkXkXN.=     { ,XkXkXkXkXkXkXwXq                         2 4XkXkXkXkXkXkX5X%.    % g.jXkXkXkXkXkXkXkXkXkXkXkX",
"kXkXkXkXkXkXkXkXkXkXfX$.O   0 S.kXkXkXkXkXkXkXkXd.                            5.kXkXkXkXkXkXkXkXI.i   X [ aXkXkXkXkXkXkXkXkXkXkX",
"kXkXkXkXkXkXkXkXkXyX2.X   v  XkXkXkXkXkXkXkXkXhXd                             q sXkXkXkXkXkXkXkXkX$XA   . %.wXkXkXkXkXkXkXkXkXkX",
"kXkXkXkXkXkXkXkXhX8.o   n ;XkXkXkXkXkXkXkXkXkX}.                                Y.kXkXkXkXkXkXkXkXkX4XG   . :.dXkXkXkXkXkXkXkXkX",
"kXkXkXkXkXkXkXkX8.O   J tXkXkXkXkXkXkXkXkXkXhXE                                 B fXkXkXkXkXkXkXkXkXkXiX(   X -.kXkXkXkXkXkXkXkX",
"kXkXkXkXkXkXkXY.$   m wXkXkXkXkXkXkXkXkXkXkX+X*                                 # ].kXkXkXkXkXkXkXkXkXkXuXH . + Z.kXkXkXkXkXkXkX",
"kXkXkXkXkXkX<Xr   u .XkXkXkXkXkXkXkXkXkXkXkXq.                                    -.kXkXkXkXkXkXkXkXkXkXkX&Xg   4 %XkXkXkXkXkXkX",
"kXkXkXkXkXhX'   & H.kXkXkXkXkXkXkXkXkXkXkXyX1                                     $ 7XkXkXkXkXkXkXkXkXkXkXkX!.>   L dXkXkXkXkXkX",
"kXkXkXkXkXS.    9.gXkXkXkXkXkXkXkXkXkXkXkXn.                                        s.kXkXkXkXkXkXkXkXkXkXkXjXd.    l.kXkXkXkXkX",
"kXkXkXkXfXh   r yXkXkXkXkXkXkXkXkXkXkXkXkXK                                         v kXkXkXkXkXkXkXkXkXkXkXkXdXh   t uXkXkXkXkX",
"kXkXkXkXs.  + G.kXkXkXkXkXkXkXkXkXkXkXkX@XX                                           ^.kXkXkXkXkXkXkXkXkXkXkXkX/.$   6.kXkXkXkX",
"kXkXkXpXf   N fXkXkXkXkXkXkXkXkXkXkXkXkXO.                                            ( kXkXkXkXkXkXkXkXkXkXkXkXhXP   r eXkXkXkX",
"kXkXkXV.X . R.kXkXkXkXkXkXkXkXkXkXkXkX6X4                     % >                     : -XkXkXkXkXkXkXkXkXkXkXkXkX|.O   s.kXkXkX",
"kXkXkXZ   l hXkXkXkXkXkXkXkXkXkXkXkXkXa..                     / @.                      4.kXkXkXkXkXkXkXkXkXkXkXkXkXS   h jXkXkX",
"kXkX8XO   9.kXkXkXkXkXkXkXkXkXkXkXkXjXp                     @ ^.XX&                     8 dXkXkXkXkXkXkXkXkXkXkXkXkXs.  . =XkXkX",
"kXkXc.    OXkXkXkXkXkXkXkXkXkXkXkXkX~.                      m gXjXK                       F.kXkXkXkXkXkXkXkXkXkXkXkX1XX   e.kXkX",
"kXjXK   f hXkXkXkXkXkXkXkXkXkXkXkXfXX.                      s.kXkXb..                     ^ pXkXkXkXkXkXkXkXkXkXkXkXkXD   c fXkX",
"kX0X7   1.kXkXkXkXkXkXkXkXkXkXkXkX+X2                     8 *XkXkX3Xp                     * ].kXkXkXkXkXkXkXkXkXkXkXkXy.  , 2XkX",
"kXoXO   D.kXkXkXkXkXkXkXkXkXkXkXkX9.                      >.kXkXkXkX0.                      :.kXkXkXkXkXkXkXkXkXkXkXkXQ.    _.kX",
"kXH.  O OXkXkXkXkXkXkXkXkXkXkXkXwXh                        XkXkXkXkX:XX                     y 1XkXkXkXkXkXkXkXkXkXkXkX-X*   b.kX",
"kXd.  2 4XkXkXkXkXkXkXkXkXkXkXkXl.O                     L kXkXkXkXkXkX{                     . t.kXkXkXkXkXkXkXkXkXkXkXwX0   9.kX",
"kX6.  e yXkXkXkXkXkXkXkXkXkXkXkXH                     X D.kXkXkXkXkXkXW.O                     v jXkXkXkXkXkXkXkXkXkXkXgXs   &.kX",
"kX*.  a hXkXkXkXkXkXkXkXkXkXkX,Xo                     e eXkXkXkXkXkXkXpXs                     . oXkXkXkXkXkXkXkXkXkXkXkXV   { kX",
"kXO.  z kXkXkXkXkXkXkXkXkXkXkX*.                      <.kXkXkXkXkXkXkXkXy.                      ` jXkXkXkXkXkXkXkXkXkXkXU   ( kX",
"kXo.  z kXkXkXkXkXkXkXkXkXkX4X6                     * >XkXkXkXkXkXkXkXkXqX1                     > -XkXkXkXkXkXkXkXkXkXkXY   ( kX",
"kX#.  g jXkXkXkXkXkXkXkXkXkXB.                      W kXkXkXkXkXkXkXkXkXkX}                       f.kXkXkXkXkXkXkXkXkXkXG   ' kX",
"kX<.  u pXkXkXkXkXkXkXkXkXgXd                     $ H.kXkXkXkXkXkXkXkXkXkX^.;                     6 aXkXkXkXkXkXkXkXkXjXh   +.kX",
"kXy.  5 8XkXkXkXkXkXkXkXkXY.                      S aXkXkXkXkXkXkXkXkXkXkXgXE                       C.kXkXkXkXkXkXkXkXyXe   5.kX",
"kXV.  % *XkXkXkXkXkXkXkXkX..                      d.kXkXkXkXkXkXkXkXkXkXkXkXm.                      ~ kXkXkXkXkXkXkXkX1X,   h.kX",
"kX{..   E.kXkXkXkXkXkXkXwX:                     : >XkXkXkXkXkXkXkXkXkXkXkXkX6X6                     @ 1XkXkXkXkXkXkXkX{..   T.kX",
"kX5X2   y.kXkXkXkXkXkXkX8.                      X.jXkXkXkXkXkXkXkXkXkXkXkXkXkX4.                      *.kXkXkXkXkXkXkXc.  * =XkX",
"kXhXZ   S kXkXkXkXkXkXuXa                     . +XkXkXkXkXkXkXkXkXkXkXkXkXkXkX<XO                     q qXkXkXkXkXkXkX`   s aXkX",
"kXkXp.  + 4XkXkXkXkXkXL.O                     x jXkXkXkXkXkXkXkXkXkXkXkXkXkXkXkXJ                     X b.kXkXkXkXkXtX:   ;.kXkX",
"kXkX>X.   v.kXkXkXkXkXA                     . V.kXkXkXkXkXkXkXkXkXkXkXkXkXkXkXkXE.o                     h kXkXkXkXkXG.    [.kXkX",
"kXkXkXN   L kXkXkXkX@X.                     a uXkXkXkXkXkXkXkXkXkXkXkXkXkXkXkXkXsXc                       _.kXkXkXkX`   u jXkXkX",
"kXkXkXM.X $ @XkXkXjX8.                      2.kXkXkXkXkXkXkXkXkXkXkXkXkXkXkXkXkXkXi.                      -.hXkXkX2X:   e.kXkXkX",
"kXkXkXeXy   | kXkX5Xd                     & 2XkXkXkXkXkXkXkXkXkXkXkXkXkXkXkXkXkXkXeX<                     0 -XkXkX>.  3 3XkXkXkX",
"kXkXkXkXu.  * XXkXk.                      ] kXkXkXkXkXkXkXkXkXkXkXkXkXkXkXkXkXkXkXkX&.                      r.kX;X,   ;.kXkXkXkX",
"kXkXkXkXpXi   H hXH                       J.kXkXkXkXkXkXkXkXkXkXkXkXkXkXkXkXkXkXkXkX(.                      b pX`   2 9XkXkXkXkX",
"kXkXkXkXkXx.    *.*                     i dXkXkXkXkXkXkXkXkXkXkXkXkXkXkXkXkXkXkXkXkXjXn                     @ %..   e.kXkXkXkXkX",
"kXkXkXkXkXhXZ                           k.kXkXkXkXkXkXkXkXkXkXkXkXkXkXkXkXkXkXkXkXkXkXZ..                         s iXkXkXkXkXkX",
"kXkXkXkXkXkX#X>                       1 1XkXkXkXkXkXkXkXkXkXkXkXkXkXkXkXkXkXkXkXkXkXkX0X9                       % `.kXkXkXkXkXkX",
"kXkXkXkXkXkXkXA..                     &.kXkXkXkXkXkXkXkXkXkXkXkXkXkXkXkXkXkXkXkXkXkXkXkX0.                      s.kXkXkXkXkXkXkX",
"kXkXkXkXkXkXkXhX{ X                 o OXkXkXkXkXkXkXkXkXkXkXkXkXkXkXkXkXkXkXkXkXkXkXkXkX<X@                 . T dXkXkXkXkXkXkXkX",
"kXkXkXkXkXkXkXkXtXU                 m kXkXkXkXkXkXkXkXkXkXkXkXkXkXkXkXkXkXkXkXkXkXkXkXkXkXI                 N 7XkXkXkXkXkXkXkXkX",
"kXkXkXkXkXkXkXkXkX7XQ             o l.kXkXkXkXkXkXkXkXkXkXkXkXkXkXkXkXkXkXkXkXkXkXkXkXkXkXA.#             S ,XkXkXkXkXkXkXkXkXkX",
"kXkXkXkXkXkXkXkXkXkX6XS .         s 6XkXkXkXkXkXkXkXkXkXkXkXkXkXkXkXkXkXkXkXkXkXkXkXkXkXkXtXv           c :XkXkXkXkXkXkXkXkXkXkX",
"kXkXkXkXkXkXkXkXkXkXkX9X!         ,.kXkXkXkXkXkXkXkXkXkXkXkXkXkXkXkXkXkXkXkXkXkXkXkXkXkXkXkXw.        G 1XkXkXkXkXkXkXkXkXkXkXkX",
"kXkXkXkXkXkXkXkXkXkXkXkXkXy.#     F |.kXkXkXkXkXkXkXkXkXkXkXkXkXkXkXkXkXkXkXkXkXkXkXkXkXkX@XR     + 6.jXkXkXkXkXkXkXkXkXkXkXkXkX",
"kXkXkXkXkXkXkXkXkXkXkXkXkXjX~.a     =  .-XkXkXkXkXkXkXkXkXkXkXkXkXkXkXkXkXkXkXkXkXkXkX2X#.:     w I.hXkXkXkXkXkXkXkXkXkXkXkXkXkX",
"kXkXkXkXkXkXkXkXkXkXkXkXkXkXkXiX5.4     + Q N.8XkXkXkXkXkXkXkXkXkXkXkXkXkXkXkXkXwXA._ $     , :.eXkXkXkXkXkXkXkXkXkXkXkXkXkXkXkX",
"kXkXkXkXkXkXkXkXkXkXkXkXkXkXkXkXkX2X=.1       o Y g./.:XeXhXkXkXkXkXhXrX,X).k.~ +       > O.;XkXkXkXkXkXkXkXkXkXkXkXkXkXkXkXkXkX",
"kXkXkXkXkXkXkXkXkXkXkXkXkXkXkXkXkXkXkX2Xc.j           - q d n A S m f w ; .         p j.>XkXkXkXkXkXkXkXkXkXkXkXkXkXkXkXkXkXkXkX",
"kXkXkXkXkXkXkXkXkXkXkXkXkXkXkXkXkXkXkXkXkXhX}.y.W 9 .                       6 Y e.`.gXkXkXkXkXkXkXkXkXkXkXkXkXkXkXkXkXkXkXkXkXkX",
"kXkXkXkXkXkXkXkXkXkXkXkXkXkXkXkXkXkXkXkXkXkXkXkXdX>X/.c.8.$.[ ) ( [ #.7.z.!.;XsXkXkXkXkXkXkXkXkXkXkXkXkXkXkXkXkXkXkXkXkXkXkXkXkX",
"kXkXkXkXkXkXkXkXkXkXkXkXkXkXkXkXkXkXkXkXkXkXkXkXkXkXkXkXkXkXkXkXkXkXkXkXkXkXkXkXkXkXkXkXkXkXkXkXkXkXkXkXkXkXkXkXkXkXkXkXkXkXkXkX"
};
